<svg width="59" height="16" viewBox="0 0 59 16" fill="none" xmlns="http://www.w3.org/2000/svg">
<g clip-path="url(#clip0_1_27)">
<path d="M23.9332 12.1193C23.2969 12.1193 22.7301 12.0099 22.233 11.7912C21.7386 11.5696 21.348 11.2656 21.0611 10.8793C20.777 10.4901 20.6307 10.0412 20.6222 9.53267H22.4801C22.4915 9.74574 22.5611 9.93324 22.6889 10.0952C22.8196 10.2543 22.9929 10.3778 23.2088 10.4659C23.4247 10.554 23.6676 10.598 23.9375 10.598C24.2188 10.598 24.4673 10.5483 24.6832 10.4489C24.8991 10.3494 25.0682 10.2116 25.1903 10.0355C25.3125 9.85937 25.3736 9.65625 25.3736 9.42614C25.3736 9.19318 25.3082 8.98722 25.1776 8.80824C25.0497 8.62642 24.8651 8.48437 24.6236 8.3821C24.3849 8.27983 24.1009 8.22869 23.7713 8.22869H22.9574V6.87358H23.7713C24.0497 6.87358 24.2955 6.82528 24.5085 6.72869C24.7244 6.6321 24.892 6.49858 25.0114 6.32812C25.1307 6.15483 25.1903 5.95312 25.1903 5.72301C25.1903 5.50426 25.1378 5.3125 25.0327 5.14773C24.9304 4.98011 24.7855 4.84943 24.598 4.75568C24.4134 4.66193 24.1974 4.61506 23.9503 4.61506C23.7003 4.61506 23.4716 4.66051 23.2642 4.75142C23.0568 4.83949 22.8906 4.96591 22.7656 5.13068C22.6406 5.29545 22.5739 5.48864 22.5653 5.71023H20.7969C20.8054 5.20739 20.9489 4.7642 21.2273 4.38068C21.5057 3.99716 21.8807 3.69744 22.3523 3.48153C22.8267 3.26278 23.3622 3.15341 23.9588 3.15341C24.5611 3.15341 25.0881 3.26278 25.5398 3.48153C25.9915 3.70028 26.3423 3.99574 26.5923 4.3679C26.8452 4.73722 26.9702 5.15199 26.9673 5.61222C26.9702 6.10085 26.8182 6.50852 26.5114 6.83523C26.2074 7.16193 25.8111 7.36932 25.3224 7.45739V7.52557C25.9645 7.60795 26.4531 7.83097 26.7884 8.1946C27.1264 8.5554 27.294 9.0071 27.2912 9.54972C27.294 10.0469 27.1506 10.4886 26.8608 10.875C26.5739 11.2614 26.1776 11.5653 25.6719 11.7869C25.1662 12.0085 24.5866 12.1193 23.9332 12.1193ZM32.3624 12H29.2687V3.27273H32.388C33.2658 3.27273 34.0215 3.44744 34.655 3.79688C35.2886 4.14347 35.7758 4.64205 36.1167 5.29261C36.4604 5.94318 36.6323 6.72159 36.6323 7.62784C36.6323 8.53693 36.4604 9.31818 36.1167 9.97159C35.7758 10.625 35.2857 11.1264 34.6465 11.4759C34.0102 11.8253 33.2488 12 32.3624 12ZM31.1138 10.419H32.2857C32.8312 10.419 33.29 10.3224 33.6621 10.1293C34.0371 9.93324 34.3184 9.63068 34.5059 9.22159C34.6962 8.80966 34.7914 8.27841 34.7914 7.62784C34.7914 6.98295 34.6962 6.45597 34.5059 6.04688C34.3184 5.63778 34.0386 5.33665 33.6664 5.14347C33.2942 4.95028 32.8354 4.85369 32.29 4.85369H31.1138V10.419ZM38.5991 12V3.27273H42.0423C42.7043 3.27273 43.2682 3.39915 43.7341 3.65199C44.2 3.90199 44.5551 4.25 44.7994 4.69602C45.0466 5.1392 45.1702 5.65057 45.1702 6.23011C45.1702 6.80966 45.0452 7.32102 44.7952 7.7642C44.5452 8.20739 44.183 8.55256 43.7085 8.79972C43.2369 9.04687 42.6659 9.17045 41.9955 9.17045H39.8009V7.69176H41.6972C42.0523 7.69176 42.3449 7.63068 42.575 7.50852C42.808 7.38352 42.9813 7.21165 43.0949 6.9929C43.2114 6.77131 43.2696 6.51705 43.2696 6.23011C43.2696 5.94034 43.2114 5.6875 43.0949 5.47159C42.9813 5.25284 42.808 5.08381 42.575 4.96449C42.342 4.84233 42.0466 4.78125 41.6886 4.78125H40.4443V12H38.5991ZM54.669 6.32812H52.8025C52.7684 6.08665 52.6988 5.87216 52.5937 5.68466C52.4886 5.49432 52.3536 5.33239 52.1888 5.19886C52.0241 5.06534 51.8337 4.96307 51.6178 4.89205C51.4048 4.82102 51.1732 4.78551 50.9232 4.78551C50.4715 4.78551 50.0781 4.89773 49.7428 5.12216C49.4076 5.34375 49.1477 5.66761 48.963 6.09375C48.7783 6.51705 48.686 7.03125 48.686 7.63636C48.686 8.25852 48.7783 8.78125 48.963 9.20455C49.1505 9.62784 49.4119 9.94744 49.7471 10.1634C50.0823 10.3793 50.4701 10.4872 50.9104 10.4872C51.1576 10.4872 51.3863 10.4545 51.5965 10.3892C51.8096 10.3239 51.9985 10.2287 52.1633 10.1037C52.3281 9.97585 52.4644 9.82102 52.5724 9.6392C52.6832 9.45739 52.7599 9.25 52.8025 9.01705L54.669 9.02557C54.6207 9.42614 54.4999 9.8125 54.3067 10.1847C54.1164 10.554 53.8593 10.8849 53.5354 11.1776C53.2144 11.4673 52.8309 11.6974 52.3849 11.8679C51.9417 12.0355 51.4403 12.1193 50.8806 12.1193C50.1022 12.1193 49.4062 11.9432 48.7925 11.5909C48.1817 11.2386 47.6988 10.7287 47.3437 10.0611C46.9914 9.39347 46.8153 8.58523 46.8153 7.63636C46.8153 6.68466 46.9942 5.875 47.3522 5.20739C47.7102 4.53977 48.196 4.03125 48.8096 3.68182C49.4232 3.32955 50.1136 3.15341 50.8806 3.15341C51.3863 3.15341 51.855 3.22443 52.2869 3.36648C52.7215 3.50852 53.1065 3.71591 53.4417 3.98864C53.7769 4.25852 54.0496 4.58949 54.2599 4.98153C54.4729 5.37358 54.6093 5.82244 54.669 6.32812Z" fill="white"/>
<path d="M0 2.66667L5.5 0.5L16 2.66667V13.3333L10.6667 16L0 13.3333V2.66667Z" fill="#737373"/>
<path d="M16 2.66667L5.5 0.5L0 2.66667L10.6667 5.33333V16L16 13.3333V2.66667Z" fill="#808080"/>
<path d="M5.33333 0L16 2.66667L10.6667 5.33333L0 2.66667L5.33333 0Z" fill="#8C8C8C"/>
</g>
<defs>
<clipPath id="clip0_1_27">
<rect width="59" height="16" fill="white"/>
</clipPath>
</defs>
</svg>
